[img]http://img249.imageshack.us/img249/7585/f5pt3cd.jpg[/img]

[img]http://leetleech.org/images/48874973695367351744.png[/img]

Format                           : AVI
Format/Info                      : Audio Video Interleave
File size                        : 1.59 GiB
Duration                         : 1h 37mn
Overall bit rate                 : 2 325 Kbps
Writing application              : Nandub v1.0rc2
Writing library                  : VirtualDub build 32839/release

Video
ID                               : 0
Format                           : MPEG-4 Visual
Format profile                   : Advanced Simple@L5
Format settings, BVOP            : Yes
Format settings, QPel            : No
Format settings, GMC             : No warppoints
Format settings, Matrix          : Custom
Codec ID                         : XVID
Codec ID/Hint                    : XviD
Duration                         : 1h 37mn
Bit rate                         : 1 867 Kbps
Width                            : 720 pixels
Height                           : 304 pixels
Display aspect ratio             : 2.35:1
Frame rate                       : 25.000 fps
Color space                      : YUV
Chroma subsampling               : 4:2:0
Bit depth                        : 8 bits
Scan type                        : Progressive
Bits/(Pixel*Frame)               : 0.341
Stream size                      : 1.28 GiB (80%)
Writing library                  : XviD 1.2.1 (UTC 2008-12-04)

Audio
ID                               : 1
Format                           : AC-3
Format/Info                      : Audio Coding 3
Mode extension                   : CM (complete main)
Codec ID                         : 2000
Duration                         : 1h 37mn
Bit rate mode                    : Constant
Bit rate                         : 448 Kbps
Channel(s)                       : 6 channels
Channel positions                : Front: L C R, Side: L R, LFE
Sampling rate                    : 48.0 KHz
Bit depth                        : 16 bits
Video delay                      : 14ms
Stream size                      : 314 MiB (19%)
Alignment                        : Split accross interleaves
Interleave, duration             : 40 ms (1.00 video frame)
Interleave, preload duration     : 500 ms

[url]http://www.imdb.com/title/tt1243957/[/url]

Users: 6.0/10 (13,344 votes) 161 reviews | Critics: 204 reviews Metascore: 37/100 (based on 37 reviews from Metacritic.com)

Revolves around Frank, an American tourist visiting Italy to mend a broken heart. Elise is an extraordinary woman who deliberately crosses his path.
Director:
Florian Henckel von Donnersmarck
Writers:
Florian Henckel von Donnersmarck (screenplay), Christopher McQuarrie (screenplay), and 2 more credits »
Stars:
Johnny Depp, Angelina Jolie and Paul Bettany 



A hell of alot of copies out of this now but i just took my time with it and got it how i wanted it .Yes the file size is on the large size but i went with a higher bitrate.Your either gonna want this or be sick to death of it.Either way ive ran a few filters through it so either enjoy or wave it goodbye ........ Enjoy !


[img]http://leetleech.org/images/95521316153253938506.png[/img]

[img]http://img148.imageshack.us/img148/5849/vlcsnap2011012708h46m38.png[/img]
[img]http://img832.imageshack.us/img832/2348/vlcsnap2011012708h48m52.png[/img]
[img]http://img155.imageshack.us/img155/7412/vlcsnap2011012708h48m14.png[/img]


Greetz to Imagine ,Flawl3ss ,Santi ,Vision ,Kingdom,BDK,DiGiTALiNK,LEGION,Classified,THC,WBZ,Rx ,Feel Free and to all who share